<?xml version="1.0" encoding="utf-8"?>
<!-- Generator: Adobe Illustrator 23.0.1, SVG Export Plug-In . SVG Version: 6.00 Build 0)  -->
<svg version="1.1" xmlns="http://www.w3.org/2000/svg" xmlns:xlink="http://www.w3.org/1999/xlink" x="0px" y="0px"
	 viewBox="0 0 413 384" style="enable-background:new 0 0 413 384;" xml:space="preserve">
<style type="text/css">
	.st0{fill:#6B1310;}
	.st1{clip-path:url(#SVGID_2_);fill:#FFFFFF;}
</style>
<g id="Layer_2">
</g>
<g id="Layer_1">
	<polygon class="st0" points="383.97,251.89 321.76,359.64 125.88,359.64 27.94,190 125.88,20.36 321.76,20.36 384.06,128.26 
		338.94,190 	"/>
	<g>
		<defs>
			<rect id="SVGID_1_" x="-94" y="-206" width="612" height="792"/>
		</defs>
		<clipPath id="SVGID_2_">
			<use xlink:href="#SVGID_1_"  style="overflow:visible;"/>
		</clipPath>
		<path class="st1" d="M271.92,161.29l26.03-35.62c0.79-1.09,0.89-2.54,0.24-3.72l-8.01-14.55c-0.61-1.11-1.77-1.8-3.04-1.8H70
			c-1.14,0-2.07-0.93-2.07-2.07V58.68c0-1.14,0.93-2.07,2.07-2.07h85.66h80.94h72.18c0.74,0,1.42,0.39,1.79,1.03l38.91,67.39
			c0.41,0.71,0.36,1.59-0.12,2.25l-45.09,61.69c-0.53,0.73-0.53,1.71,0,2.44l45.04,61.9c0.48,0.66,0.53,1.54,0.12,2.25l-38.85,67.28
			c-0.37,0.64-1.05,1.03-1.79,1.03H236.6h-80.94H70c-1.14,0-2.07-0.93-2.07-2.07v-44.86c0-1.14,0.93-2.07,2.07-2.07H287.4
			c1.11,0,2.13-0.6,2.66-1.57l8.19-14.89c0.59-1.06,0.48-2.38-0.26-3.33l-28.28-36.31c-0.58-0.74-1.46-1.17-2.4-1.17H100.97
			c-0.74,0-1.43-0.4-1.8-1.04l-14.81-25.94c-0.37-0.65-0.36-1.44,0.02-2.08l14.78-24.81c0.37-0.63,1.05-1.01,1.78-1.01l168.18,0.01
			C270.23,162.71,271.27,162.19,271.92,161.29"/>
	</g>
</g>
</svg>
