<?xml version="1.0" encoding="iso-8859-1"?>
<!-- Generator: Adobe Illustrator 23.0.1, SVG Export Plug-In . SVG Version: 6.00 Build 0)  -->
<svg version="1.1" id="Layer_1" xmlns="http://www.w3.org/2000/svg" xmlns:xlink="http://www.w3.org/1999/xlink" x="0px" y="0px"
	 viewBox="0 0 413 384" style="enable-background:new 0 0 413 384;" xml:space="preserve">
<path style="fill:#fff;" d="M382.06,130.29l-62.3-107.9H123.88l-20.76,35.95h197.25c0.732-0.008,1.413,0.372,1.79,1l38.91,67.39
	c0.407,0.708,0.36,1.589-0.12,2.25l-45.09,61.69c-0.53,0.727-0.53,1.713,0,2.44l45,61.9c0.48,0.661,0.527,1.542,0.12,2.25
	l-38.85,67.28c-0.377,0.628-1.058,1.008-1.79,1H147.25c0,0-40.41,0.47-44.47-0.46l21.1,36.53h195.88l62.21-107.65l-45-61.89
	L382.06,130.29z"/>
</svg>
