<?xml version="1.0" encoding="iso-8859-1"?>
<!-- Generator: Adobe Illustrator 23.0.1, SVG Export Plug-In . SVG Version: 6.00 Build 0)  -->
<svg version="1.1" baseProfile="basic" id="Layer_1"
	 xmlns="http://www.w3.org/2000/svg" xmlns:xlink="http://www.w3.org/1999/xlink" x="0px" y="0px" viewBox="0 0 413 384"
	 xml:space="preserve">
<polygon points="383.97,251.89 321.76,359.64 125.88,359.64 27.94,190 125.88,20.36 321.76,20.36 384.06,128.26 338.94,190 "/>
<path style="display:none;fill:#6B1310;" d="M284.65,273.06l8.19-14.89c0.596-1.06,0.494-2.375-0.26-3.33l-28.26-36.31
	c-0.573-0.744-1.461-1.177-2.4-1.17H95.56c-0.734,0.006-1.417-0.374-1.8-1l-14.81-25.98c-0.376-0.642-0.376-1.438,0-2.08
	l14.78-24.81c0.375-0.625,1.052-1.005,1.78-1h168.2c1.108-0.004,2.147-0.535,2.8-1.43l26-35.62c0.793-1.089,0.887-2.538,0.24-3.72
	l-8-14.55c-0.601-1.099-1.748-1.787-3-1.8H77.83l-48.89,84.69l48.82,84.57h204.23C283.099,274.638,284.122,274.035,284.65,273.06z"
	/>
<path style="display:none;fill:#6B1310;" d="M384.06,129.29l-62.3-107.9H125.88l-20.76,35.95h197.25c0.732-0.008,1.413,0.372,1.79,1
	l38.91,67.39c0.407,0.708,0.36,1.589-0.12,2.25l-45.09,61.69c-0.53,0.727-0.53,1.713,0,2.44l45,61.9
	c0.48,0.661,0.527,1.542,0.12,2.25l-38.85,67.28c-0.377,0.628-1.058,1.008-1.79,1H149.25c0,0-40.41,0.47-44.47-0.46l21.1,36.53
	h195.88l62.21-107.65l-45-61.89L384.06,129.29z"/>
</svg>
